# xmcd
#
# Track frame offsets: 
#        150
#        16492
#        28963
#        48656
#        66866
#        94513
#        113827
#        132317
#        143090
#        157581
#        180856
#        230430
#
# Disc length: 3762 seconds
#
# Revision: 2
# Processed by: cddbd v1.5.2PL0 Copyright (c) Steve Scherf et al.
# Submitted via: ExactAudioCopy v1.0b6
#
DISCID=950eb00c
DTITLE=Bohema - Bohema
DYEAR=2003
DGENRE=
TTITLE0=Zanzibar
TTITLE1=Lolo
TTITLE2=GInger
TTITLE3=Kameleona Kamuflaze
TTITLE4=Jesus
TTITLE5=Huczyhuczyhasz
TTITLE6=Etapy
TTITLE7=Lara K.
TTITLE8=Druga Strona Dnia
TTITLE9=Siodma Noc
TTITLE10=Hell Woman
TTITLE11=Nieokreślony tytuł
EXTD=
EXTT0=
EXTT1=
EXTT2=
EXTT3=
EXTT4=
EXTT5=
EXTT6=
EXTT7=
EXTT8=
EXTT9=
EXTT10=
EXTT11=
PLAYORDER=
